<svg xmlns="http://www.w3.org/2000/svg" width="212.053" height="146.188" viewBox="235 40 212.053 146.188"><g data-name="Group 1312"><path d="M1176.568 141.186c0-.26.023-.514.067-.76.19-.553-.068-1.513-.253-1.87a1.046 1.046 0 0 0-.012-.024 26.502 26.502 0 0 0-2.341-3.543 26.818 26.818 0 0 0-.213-.269 2.21 2.21 0 0 0-.241-.234c-.563-.467-1.21-.527-1.497-.587a1.432 1.432 0 0 1-.027-.006 4.338 4.338 0 0 1-3.198-3.051c-.09-.538-.677-1.4-.97-1.626a.551.551 0 0 0-.022-.016 31.89 31.89 0 0 0-2.89-1.788 33.88 33.88 0 0 0-1.448-.75.772.772 0 0 0-.144-.049c-.477-.12-1.58-.13-2-.065a1.072 1.072 0 0 0-.07.013 4.356 4.356 0 0 1-.957.106 4.326 4.326 0 0 1-3.428-1.682 4.467 4.467 0 0 1-.004-.006c-.21-.272-.686-.95-1.477-1.177a1.932 1.932 0 0 0-.187-.043 50.185 50.185 0 0 0-3.645-.731 52.885 52.885 0 0 0-1.517-.225 2.73 2.73 0 0 0-1.9.568 4.303 4.303 0 0 1-1.876.533 4.388 4.388 0 0 1-.212.005 4.305 4.305 0 0 1-2.251-.631 4.348 4.348 0 0 1-.58-.424c-.2-.174-.84-.612-1.476-.581a70.153 70.153 0 0 0-.144 0c-1.563 0-3.074.052-4.531.157a55.632 55.632 0 0 0-1.44.121 1.726 1.726 0 0 0-.76.264 3.276 3.276 0 0 0-.723.627 4.324 4.324 0 0 1-2.95 1.457 4.398 4.398 0 0 1-.3.01 4.304 4.304 0 0 1-1.833-.407 4.34 4.34 0 0 1-.375-.199 1 1 0 0 0-.339-.175c-.353-.112-.787-.094-1.048-.048a1.32 1.32 0 0 0-.12.027 41.393 41.393 0 0 0-3.78 1.25 37.598 37.598 0 0 0-1.176.476 1.421 1.421 0 0 0-.568.508 2.658 2.658 0 0 0-.306.614 4.33 4.33 0 0 1-4.816 2.865c-.73-.144-1.469.132-1.727.336a26.84 26.84 0 0 0-2.983 2.732 24.649 24.649 0 0 0-.996 1.131 1.294 1.294 0 0 0-.29.488c-.133.395-.11.827-.104 1.088a3.556 3.556 0 0 1 0 .075 4.317 4.317 0 0 1-1.27 3.064 4.35 4.35 0 0 1-1.004.748 4.58 4.58 0 0 0-.038.024c-.413.262-.827.618-1.063 1.091a9.295 9.295 0 0 0-.287 1.01c-.366 1.622-.305 3.245-.289 4.823a8.406 8.406 0 0 0 1.204.46c4.82 1.417 8.106-2.75 11.176-3.05a3.501 3.501 0 0 1 .34-.017 6.324 6.324 0 0 1 3.735 1.396c1.478 1.066 2.757 2.463 4.156 3.131a3.651 3.651 0 0 0 1.588.39 2.99 2.99 0 0 0 .915-.178c2.652-.883 7.362-4.74 9.308-4.74a5.22 5.22 0 0 1 2.605.788c2.967 1.696 5.785 5.551 10.725 5.638a9.673 9.673 0 0 0 .169.001c3.092 0 8.093-3.274 11.73-3.274a12.388 12.388 0 0 1 2.739.316c4.397.987 7.483 3.803 12.345 1.14a13.712 13.712 0 0 0 0-.12 13.875 13.875 0 0 0-.247-2.449c-.128-.637-.818-1.26-1.092-1.518a4.322 4.322 0 0 1-1.367-3.158Z" fill-rule="evenodd" fill="url(&quot;#a&quot;)" transform="translate(-789.894 -58.357)" data-name="Path 3748"/><path d="M1128.402 130.177s-7.881 1.94-12.791 6.669a5.765 5.765 0 0 0-.049.051c-.51.548-4.853 5.336-4.217 9.026.583 3.383 2.692-.12 8.095-.392a13.083 13.083 0 0 1 .657-.017 11.068 11.068 0 0 1 1.923.162c4.507.793 5.996 4.235 8.625 4.235 2.667 0 6.304-4.392 10.365-4.392 4.741 0 7.735 4.517 11.907 5.789a7.346 7.346 0 0 0 2.158.329c3.455 0 6.524-3.03 10.537-3.03 3.686 0 14.386 5.349 12.75.499-.839-2.485-4.607-6.195-19.807-8.024a114.4 114.4 0 0 0-1.54-.175s-14.763-10.9-26.244-10.9a15.95 15.95 0 0 0-2.37.17Z" fill-rule="evenodd" fill="url(&quot;#b&quot;)" transform="translate(-791.679 -61.26)" data-name="Path 3749"/><path d="m320.697 96.62 11.457 2.182 9.154-1.576 21.763-.12 9.7 2.242a762.628 762.628 0 0 1 .144-.021c1.429-.217 13.007-1.964 13.25-1.92a.015.015 0 0 1 .002.001.099.099 0 0 0 .02.004c.298.034 2.947-.318 3.28-.363a44.72 44.72 0 0 0 .035-.004s-1.759-.667-.121-1.576c1.636-.91.666-1.759.666-1.759L369.8 93.53l-9.093 1.697-6.366-2.243-10.669-.91-7.153.304-11.882-.06-5.335 3.03a1.712 1.712 0 0 1 .019.003c.212.035 2.185.388 1.443 1.202a1.23 1.23 0 0 1-.067.068Z" fill="#3d5107" fill-rule="evenodd" data-name="Path 3750"/><g data-name="Group 1308"><path d="M282.991 124.504a1.5 1.5 0 0 0 .082.002c2.872-.667 10.258.836 12.463 6.346a9.107 9.107 0 0 1 .631 3.414c0 16.489-28.068 35.039-36.676 35.039a10.663 10.663 0 0 1-1.683-.131c-6.092-.974-9.455-7.247-4.864-14.66a16.207 16.207 0 0 1 .785-1.15c3.936-5.281 12.758-11.185 24.727-16.918a198.228 198.228 0 0 1 8.17-3.68c-.686-2.041-2.917-3.466-6.827-3.466a12.665 12.665 0 0 0-1.144.054c-6.375.579-13.934 5.664-15.034 6.383a10.316 10.316 0 0 1-.068.044s-1.82-.767-2.049-3.108a67.748 67.748 0 0 0-.687.843c-2.905 3.616-9.608 12.66-10.6 20.27a.687.687 0 0 1-.007.012 2.1 2.1 0 0 1-.26.377 1.16 1.16 0 0 1-.34.278s-4.517-2.553-5.717-7.817a11.708 11.708 0 0 1-.29-2.61 9.14 9.14 0 0 1 .329-2.26c.572-2.207 1.864-4.928 3.663-7.93a84.586 84.586 0 0 1 3.842-5.8c-2.186-3.843-.129-7.486.193-8.012a2.372 2.372 0 0 1 .04-.065c3.24 1.313 4.895.932 5.63.55 8.48-10.146 18.95-19.952 25.441-22.885a8.4 8.4 0 0 1 3.302-.883c2.91 0 5.032 4.244 5.213 5.76a122.486 122.486 0 0 0-12.028 8.812c-3.9 3.226-7.345 6.453-9.936 9.219a50.991 50.991 0 0 0-2.626 3.007 6.299 6.299 0 0 0 .21.004c6.825 0 23.627-10.538 32.564-20.133a43.064 43.064 0 0 0 1.67-1.897c5.197-6.282 6.37-11.85-1.576-12.855a22.603 22.603 0 0 0-2.821-.16 37.119 37.119 0 0 0-5.192.413c-18.84 2.7-52.75 18.281-52.75 36.872a15.26 15.26 0 0 0 .109 1.814.624.624 0 0 1-.015-.005c-.255-.095-3.865-1.548-3.865-7.814a13.691 13.691 0 0 1 .257-2.576c2.982-15.554 31.46-38.404 59.394-38.404 9.816 0 15.199 4.105 17.675 10.328a28.28 28.28 0 0 1 1.724 10.404 12.277 12.277 0 0 1-1.758 6.202c-3.96 6.854-13.984 12.172-23.563 16.14a183.531 183.531 0 0 1-5.778 2.27.528.528 0 0 0-.008.006c-.061.043-.449.329.048.356Zm-21.327 31.71a1.816 1.816 0 0 0 .494.058 1.558 1.558 0 0 0 .428-.085c2.787-.863 14.264-8.194 20.458-14.898a29.623 29.623 0 0 0 1.508-1.757 28.892 28.892 0 0 0-2.063.856c-8.888 4.059-23.9 14.943-20.825 15.827Z" fill="#fff" fill-rule="evenodd" data-name="Path 3751"/><path d="M372.762 147.905a97.932 97.932 0 0 0-10.549.598c6.352-10.779 12.083-21.041 17.294-25.721a12.903 12.903 0 0 1 2.682-1.913 5.081 5.081 0 0 0-.156-.87c-.851-3.08-4.33-2.1-4.33-2.1a1.815 1.815 0 0 1-.057.006c-.73.081-.576-.42-.553-.485a.237.237 0 0 1 .003-.006 7.197 7.197 0 0 0-.065-.93c-.268-2.038-1.387-4.883-3.8-5.964a5.164 5.164 0 0 0-2.136-.442 9.74 9.74 0 0 0-3.38.692c-5.192 1.947-11.465 7.753-16.183 14.186a85.967 85.967 0 0 0-.549.65c-.321.384-.67.806-1.045 1.264a61.398 61.398 0 0 1-.512.617c-2.42 2.876-9.705 11.136-12.023 10.42a.875.875 0 0 1-.014-.004.361.361 0 0 1-.229-.261c-.229-.756.648-2.94 2.503-5.286a51.1 51.1 0 0 1 2.048-2.405c3.285-3.66 7.318-7.556 8.744-11.052a6.423 6.423 0 0 0 .529-2.41 3.873 3.873 0 0 0-.78-2.415c-2.91-3.85-12.922-2.965-12.208-9.512-.285-.568-.941-.285-1.023-.247a.374.374 0 0 0-.008.004 1.152 1.152 0 0 0-.16.138c-.554.553-1.936 2.532-1.842 6.236a14.405 14.405 0 0 0 .001.052l.004.105c.15 3.906 2.262 5.553 2.466 5.703a.757.757 0 0 0 .016.011 13.474 13.474 0 0 1-.421 1.669c-1.053 3.241-3.004 4.455-4.312 4.91a5.492 5.492 0 0 1-.571.164c1.341-1.815 2.213-3.345 2.213-4.439 0-3.523-3.486-5.86-6.571-4.413a4.909 4.909 0 0 0-.22.11c-1.113 3.949-15.974 23.552-20.352 24.344a1.451 1.451 0 0 1-.258.025c-1.212 0-.637-1.734 1.156-4.17a28.836 28.836 0 0 1 .996-1.27 72.209 72.209 0 0 1 1.775-2.049c2.565-2.872 5.679-6.171 7.387-9.377a15.712 15.712 0 0 0 .203-.396 11.047 11.047 0 0 0 .712-1.822c1.097-3.764-.014-7.529-3.137-7.529a6.776 6.776 0 0 0-2.043.352c-5.951 1.898-13.65 10.894-14.318 12.825a.712.712 0 0 0-.047.22.607.607 0 0 0 .263.48c.365.287.98.37.98.37.485-.486 6.955-6.033 8.543-6.033 1.331 0 .58 1.927-1.35 4.54a34.953 34.953 0 0 1-1.105 1.416 87.171 87.171 0 0 1-2.172 2.519c-2.564 2.886-5.584 6.127-7.735 9.368a28.51 28.51 0 0 0-.596.935c-3.246 5.328-3.51 10.654 1.03 10.654a6.098 6.098 0 0 0 1.746-.282c4.673-1.405 10.307-7.637 11.455-8.948a26.171 26.171 0 0 0 .197-.227 1.273 1.273 0 0 1 .04-.045c.3-.319.322.046.323.1a.252.252 0 0 1 0 .005 3.125 3.125 0 0 0-.297.624c-.826 2.264-.917 7.763 3.575 8.408a6.375 6.375 0 0 0 .906.062 5.21 5.21 0 0 0 .66-.041c1.532-.196 2.243-1.029 2.305-1.105a.346.346 0 0 0 .005-.006c-3.046-6 5.393-15.072 11.126-21.94a137.96 137.96 0 0 0 .72-.87c.137.025.294.043.476.054a6.038 6.038 0 0 0 .196.008 3.786 3.786 0 0 0 .092.001c3.69 0 8.255-5.323 9.137-6.273a8.115 8.115 0 0 1 .016-.017 1.675 1.675 0 0 1 .509-.358c1.064-.505 2.825-.347 2.825.176 0 1.364-4.663 5.116-9.326 9.946a49.502 49.502 0 0 0-6.527 8.073 22.578 22.578 0 0 0-.849 1.503c-2.588 5.021-2.705 10.043 1.031 10.663a4.996 4.996 0 0 0 .819.065c6.812 0 15.489-11.931 16.94-13.996a37.55 37.55 0 0 0 .051-.074 26.265 26.265 0 0 0-.822 2.686c-.93 3.773-.695 6.868.582 8.442a2.972 2.972 0 0 0 2.408 1.125c4.908 0 12.485-9.46 12.91-9.944.383-.438.595-.738.787-.738a.184.184 0 0 1 .06.01.375.375 0 0 1 .08.038c.313.201-.088.744-.135.806a.513.513 0 0 1-.005.005 230.307 230.307 0 0 1-3.713 6.014 127.628 127.628 0 0 1-3.94 5.812c-23.59 4.34-46.186 15.852-46.186 28.104a4.483 4.483 0 0 0 .105.951c.803 3.702 6.045 7.404 10.148 7.404 7.82 0 16.678-4.596 24.572-11.59a75.865 75.865 0 0 0 13.438-15.78 236.96 236.96 0 0 0 1.39-2.21 65.848 65.848 0 0 1 5.186-.21c11.154 0 21.527 2.998 26.639 10.21a17.399 17.399 0 0 1 2.43 4.94 9.37 9.37 0 0 0 0 .004c.053.574.105.56.118.546a.021.021 0 0 0 .003-.004c7.608-2.365 16.246-24.189-18.944-24.189Zm-26.644 10.913c-13.002 12.309-27.278 17.731-27.278 14.852 0-3.6 11.782-11.196 26.005-14.943a71.116 71.116 0 0 1 1.83-.455 49.603 49.603 0 0 0-.167.165l-.018.018a22.164 22.164 0 0 1-.372.363Zm7.962-22.269a.872.872 0 0 0 .496.13.968.968 0 0 0 .18-.02c2.948-.562 14.153-13.795 18.87-17.533-.04-1.461-.878-1.79-1.447-1.852a2.206 2.206 0 0 0-.236-.012c-2.04 0-4.841 1.621-7.614 3.957a42.101 42.101 0 0 0-4.389 4.318c-4.213 4.783-7.184 10.122-5.86 11.012Z" fill="#fff" fill-rule="evenodd" data-name="Path 3752"/><path d="M431.688 118.19a26.658 26.658 0 0 0-.037.08c-.218.318-.49.847-.83 1.674-3.137 7.638-16.413 18.55-17.534 17.899-1.242-.722 1.067-4.019 4.577-7.85a68.624 68.624 0 0 1 2.121-2.195c3.229-3.223 6.457-6.187 6.457-9.112 0-6.562-13.238-6.102-10.525-14.165a9.99 9.99 0 0 1 .34-.869c.558-1.255-.769-1.987-.899-2.055a.578.578 0 0 0-.01-.006c-2.18 1.138-4.693 3.432-5.686 6.95a11.852 11.852 0 0 0-.437 3.234 10.081 10.081 0 0 0 .112 1.547c.196 1.264.639 2.21 1.23 2.93a5.029 5.029 0 0 0 .087.104 6.226 6.226 0 0 1-.535 1.15c-2.593 4.628-13.3 17.896-21.007 20.8a7.866 7.866 0 0 1-2.74.567 3.063 3.063 0 0 1-.895-.121c-2.544-.774-1.379-5.01-1.115-5.78a2.964 2.964 0 0 1 .017-.047c.379-1.053 1.037-.773 1.132-.726a.29.29 0 0 1 .011.005 1.666 1.666 0 0 0 .39.21c.406.154.833.154 1.126.154a6.494 6.494 0 0 0 1.672-.264c4.4-1.207 11.955-6.352 15-11.496a14.143 14.143 0 0 0 .51-.941c2.043-4.142 1.447-8.284-3.188-8.45a8.174 8.174 0 0 0-.294-.005 12.952 12.952 0 0 0-4.031.696c-7.74 2.545-16.049 11.63-19.672 20.036-2.94 6.82-2.626 13.381 2.685 14.637a8.61 8.61 0 0 0 1.983.216 14.118 14.118 0 0 0 4.428-.766c12.509-4.136 25.596-23.773 28.564-27.795a27.859 27.859 0 0 1 .003-.005 22.651 22.651 0 0 0 1 .186c1.866.309 3.409.422 3.409 1.464 0 2.783-9.697 8.986-14.964 15.863a25.375 25.375 0 0 0-.92 1.277 16.6 16.6 0 0 0-.725 1.183c-2.687 4.829-2.075 9.684 3.15 9.684a6.518 6.518 0 0 0 2.285-.496c6.753-2.591 17.667-14.584 20.53-17.96-.554 2.575-1.238 5.321-2.445 8.332-2.839 7.079-7.288 13.498-11.499 13.579a4.183 4.183 0 0 1-.08 0c-1.576 0-2.243-.667-2.728-1.758 0 0-.272-.28-.667-.182a.838.838 0 0 0-.125.157c-.9 1.394-2.563 9.13 6.41 9.326a16.082 16.082 0 0 0 .353.004 13.758 13.758 0 0 0 9.972-4.78c2.39-2.539 4.31-5.91 5.578-9.678 2.182-6.483 1.858-14.007 3.637-19.641a18.52 18.52 0 0 1 3.714-6.716c1.308-1.458 2.826-2.542 4.462-3.042a6.855 6.855 0 0 1 2.008-.305 2.704 2.704 0 0 0-.012-.104c-.091-.714-.805-4.867-5.02-4.867-4.558 0-7.985 3.24-10.333 8.233Zm-31.954-.852a1.465 1.465 0 0 0-.39-.046 2.661 2.661 0 0 0-.569.068c-3.86.851-12.276 9.391-10.416 10.126a.862.862 0 0 0 .316.05c2.927 0 13.707-9.46 11.06-10.198Z" fill="#fff" fill-rule="evenodd" data-name="Path 3753"/></g><path d="M1231.693 128.118c3.88-2.364 12.61-6.486 12.549-13.882a2.611 2.611 0 0 1-.086.143c-.508.797-3.349 4.68-10.928 5.495-1.935.208-3.47-.257-7.524 1.566a30.906 30.906 0 0 0-.8.374 7.42 7.42 0 0 1-2.65.691c-2.916.224-5.833-1.14-5.37-3.797a3.76 3.76 0 0 1 .078-.35 4.961 4.961 0 0 1 .84-1.725c1.58-2.06 4.557-2.268 6.468-1.119a4.238 4.238 0 0 1 .27.177 1.359 1.359 0 0 0-.033-.126c-.151-.514-.933-2.483-4.287-3.9a14.026 14.026 0 0 0-.712-.278 3.747 3.747 0 0 0-.117-.052c-.976-.412-7.918-3.055-16.001 1.454a23.779 23.779 0 0 0-2.19 1.386.133.133 0 0 1-.005 0c-.088.009-1.366.07-.722-3.091a8.537 8.537 0 0 1 .583-1.774c1.27-2.838 4.19-5.876 8.389-7.925a33.929 33.929 0 0 1 3.45-1.442c4.02-1.435 8.634-2.317 11.892-1.857a8.46 8.46 0 0 1 1.45.328s-3.94-4.85-11.7-5.213a18.748 18.748 0 0 0-.878-.02c-6.644 0-12.436 3.46-14.13 4.499a22.1 22.1 0 0 1-.411.25 4.909 4.909 0 0 1-.25.129c-1.596.785-8.644 3.685-10.458.112-1.264-2.487-.316-4.511 1.47-5.922a10.57 10.57 0 0 1 3.38-1.716c3.515-1.09 7.637-4.062 6.304-6.547a.735.735 0 0 1-.057.12c-.313.557-2.162 2.814-11.165 1.47a51.036 51.036 0 0 1-.478-.075c-8.784-1.397-22.211.246-31.182 5.911a23.763 23.763 0 0 0-5.07 4.213 4.603 4.603 0 0 0-.073-.164c-.509-1.099-3.708-7.3-10.838-6.747a2.626 2.626 0 0 1 .083.101c.66.826 4.825 6.662-1.985 14.875a26.857 26.857 0 0 1-1.212 1.362c6.431-2.643 12.422-2.64 18.987-2.638a1520.498 1520.498 0 0 0 .635 0 44.603 44.603 0 0 1 21.609 5.333 39.876 39.876 0 0 1 15.965 16.127c3.204 5.937 5.386 17.247 3.737 25.706a21.57 21.57 0 0 1-.937 3.393c2.425-1.94 8.332-3.426 10.346-3.395 0 0 5.777-12.148 23.822-11.479a39.99 39.99 0 0 1 .487.021s-.692-1.04-2.304-2.554a26.157 26.157 0 0 0-.12-.113 3.779 3.779 0 0 1-1.134-2.101c-.287-1.608.408-3.578 2.849-5.132a9.934 9.934 0 0 1 .164-.102Z" fill-rule="evenodd" fill="url(&quot;#c&quot;)" transform="translate(-801.553 -43.986)" data-name="Path 3754"/><path d="M1135.065 128.807a14.11 14.11 0 0 0-.214.07 32.391 32.391 0 0 0-.017.006c-2.97 1.067-2.077 1.245-1.939 1.265a.395.395 0 0 0 .016.002 23.76 23.76 0 0 1 1.226-.36c8.02-2.12 13.685 1.02 16.765 2.978a141.878 141.878 0 0 1 .923.595 7.175 7.175 0 0 1 .111.074c2.337 1.571 6.842 6.427 13.488 8.467a20.519 20.519 0 0 0 5.8.916 35.422 35.422 0 0 1 2.43.11c6.816.552 9.334 2.998 10.337 4.287a12.82 12.82 0 0 1 .396.544 4.517 4.517 0 0 1 .079.115c.563.853.522 1.423 1.111 1.543a1.33 1.33 0 0 0 .265.024.702.702 0 0 0 .154-.016c.687-.154.504-1.357.484-1.475a.738.738 0 0 0-.001-.01 16.48 16.48 0 0 0-.612-2.872c-1.313-4.273-4.002-7.045-4.623-7.644a5.267 5.267 0 0 0-.13-.123c-5.242-6.3-16.648-9.73-18.441-10.238a17.032 17.032 0 0 0-.24-.067 38.433 38.433 0 0 0-1.823-.348c-11.91-1.979-23.82 1.606-25.545 2.157Z" fill-rule="evenodd" fill="url(&quot;#d&quot;)" transform="translate(-799.705 -59.78)" data-name="Path 3755"/><path d="M1105.518 162.673a5.411 5.411 0 0 0 .9.262c3.174.626 5.618.161 7.793-1.593a10.294 10.294 0 0 0 .27-.226 14.835 14.835 0 0 1 .92-.74c1.736-1.274 3.02-1.363 4.564.517a8.593 8.593 0 0 1 .033.04c1.819 2.244 7.093 4.426 10.973 2.002a3.668 3.668 0 0 0 .063-.03c.294-.134 1.573-.751 3.271-1.971 1.94-1.394 2.91-2.183 4.728-.364 1.789 1.789 6.615 5.338 11.034 5.338a8.116 8.116 0 0 0 .22-.003 9.007 9.007 0 0 0 1.21-.13c3.173-.529 8.206-2.48 10.298-2.782a3.34 3.34 0 0 1 .465-.04c6.644 0 14.032 7.197 19.142-2.147a17.565 17.565 0 0 0 .127-.236s.336.726.28 1.851a5.164 5.164 0 0 1-.02.266c-.11 1.08-1.425 4.662-5.554 5.061a7.98 7.98 0 0 1-.769.036 4.068 4.068 0 0 1-.833-.104c-1.78-.381-4.495-1.685-6.904-1.824a7.075 7.075 0 0 0-.408-.012 26.217 26.217 0 0 0-2.066.098c-4.474.362-11.282 1.61-15.815 1.714a25.391 25.391 0 0 1-.586.007 20 20 0 0 1-2.152-.137c-3.066-.336-6.755-1.143-10.419-.742a26.434 26.434 0 0 1-.619.06c-3.37.289-4.34-.34-5.31-.76a5.727 5.727 0 0 0-.293-.119 4.935 4.935 0 0 0-1.061-.267c-.992-.135-2.334-.026-4.72.495-2.5.545-4.38 1.511-6 1.511a3.182 3.182 0 0 1-1.547-.375 4.64 4.64 0 0 0-1.668-.49c-2.155-.253-4.767.53-6.298.737a6.967 6.967 0 0 1-.218.026c-2.604.27-7.247-2.476-6.875-8.557a11.751 11.751 0 0 1 .016-.233s1.168 2.834 3.828 3.861Z" fill-rule="evenodd" fill="url(&quot;#e&quot;)" transform="translate(-788.065 -72.073)" data-name="Path 3756"/><path d="M1235.34 100.22a35.675 35.675 0 0 0-9.944 5.066c-11.597 8.643-16.098 2.867-17.094 1.23a6.31 6.31 0 0 1-.184-.32 6.696 6.696 0 0 1-.365-.815c-.793-2.127-.642-4.857.701-7.137a8.354 8.354 0 0 1 2.21-2.46 10.876 10.876 0 0 1 .655-.452c3.735-2.386 7.824-1.77 8.666-1.412a13.76 13.76 0 0 0-.353.13c-8.495 3.275-7.109 12.6 3.713 8.363a25.307 25.307 0 0 0 1.869-.824c.878-.43 7.73-5.062 15.488-4.699a19.363 19.363 0 0 1 .234.013c4.115.242 7.124 1.744 9.028 3.072.016.133-.31.065-1.125-.3a19.782 19.782 0 0 1-.256-.118c-3.106-1.445-8.174-1.006-13.242.663Z" fill-rule="evenodd" fill="url(&quot;#f&quot;)" transform="translate(-827.71 -47.585)" data-name="Path 3757"/><path d="M1268.443 140.547a14.183 14.183 0 0 0-.88.491c-4.166 2.517-11.49-1.013-7.022-5.716a8.979 8.979 0 0 1 .43-.421 10.544 10.544 0 0 0-1.123-.063c-6.868-.012-11.081 6.888-6.771 11.527a7.531 7.531 0 0 0 1.359 1.165c5.09 3.368 11.572-2.386 13.742-3.657a4.94 4.94 0 0 1 .082-.046c2.273-1.273 2.546-1.91 6.001-2.819a11.13 11.13 0 0 0 .895-.281c1.45-.517 3.205-1.395 4.425-2.129-2.204.855-3.148.928-4.722.91a46.629 46.629 0 0 1-.052 0c-1.705-.022-3.54-.404-6.364 1.039Z" fill-rule="evenodd" fill="url(&quot;#g&quot;)" transform="translate(-844.25 -63.074)" data-name="Path 3758"/><path d="M270.58 59.729a3.45 3.45 0 0 0 .005-.088c.164 3.888 2.554 4.61 3.015 4.713a1.15 1.15 0 0 0 .077.015c-2.486.486-2.971 4.426-2.971 4.426a7.157 7.157 0 0 0-.025-.29c-.356-3.296-2.822-3.763-3.309-3.824a1.416 1.416 0 0 0-.083-.008 2.768 2.768 0 0 0 1.081-.331c1.87-1.034 2.17-4.06 2.21-4.613Z" fill="#fa0" fill-rule="evenodd" data-name="Path 3759"/><path d="M276.288 45.837a5.95 5.95 0 0 0 .007-.138 13.878 13.878 0 0 0-.011.268c-.229 6.902 5.011 7.796 5.011 7.796-5.198.288-4.98 7.706-4.964 8.11a2.012 2.012 0 0 0 0 .017 15.444 15.444 0 0 0 .002-.045c.157-7.473-5.283-8.207-5.283-8.207a4.533 4.533 0 0 0 .109.002c4.485 0 5.066-6.749 5.13-7.803Z" fill="#fa0" fill-rule="evenodd" data-name="Path 3760"/><g data-name="Group 1309"><path d="M280.626 61.818h2.844v4.812h5.522v-4.812h2.843v12.904h-2.843v-5.577h-5.522v5.577h-2.844V61.818Z" fill="#fff" fill-rule="evenodd" data-name="Path 3761"/><path d="M293.766 68.27c0-1.032.173-1.969.52-2.807a6.216 6.216 0 0 1 1.168-1.856 5.945 5.945 0 0 1 .28-.285 6.386 6.386 0 0 1 2.205-1.358c.85-.315 1.78-.473 2.789-.473a8.467 8.467 0 0 1 1.798.185 7.286 7.286 0 0 1 .99.288 6.39 6.39 0 0 1 2.205 1.358 6.124 6.124 0 0 1 1.412 2.053 6.988 6.988 0 0 1 .037.088 6.841 6.841 0 0 1 .469 1.868 8.495 8.495 0 0 1 .05.94 7.981 7.981 0 0 1-.164 1.65 6.564 6.564 0 0 1-.355 1.156 6.132 6.132 0 0 1-1.449 2.14 6.37 6.37 0 0 1-2.205 1.358 7.63 7.63 0 0 1-2.047.445 9.119 9.119 0 0 1-.741.03 8.456 8.456 0 0 1-1.799-.186 7.256 7.256 0 0 1-.99-.289 6.446 6.446 0 0 1-1.906-1.091 6.124 6.124 0 0 1-.299-.267 6.101 6.101 0 0 1-1.399-2.023 6.977 6.977 0 0 1-.05-.117c-.346-.838-.519-1.774-.519-2.807Zm2.952 0a5.114 5.114 0 0 0 .1 1.027 4.286 4.286 0 0 0 .183.64c.188.505.458.942.811 1.313a3.698 3.698 0 0 0 1.266.865 3.982 3.982 0 0 0 1.124.282 4.946 4.946 0 0 0 .526.028 4.627 4.627 0 0 0 .97-.098 3.816 3.816 0 0 0 .68-.212 3.7 3.7 0 0 0 1.266-.865 3.832 3.832 0 0 0 .81-1.313 4.493 4.493 0 0 0 .26-1.153 5.466 5.466 0 0 0 .023-.514 4.968 4.968 0 0 0-.133-1.167 4.384 4.384 0 0 0-.15-.491 3.866 3.866 0 0 0-.62-1.106 3.666 3.666 0 0 0-.19-.216 3.71 3.71 0 0 0-1.267-.866 4.235 4.235 0 0 0-1.65-.31 4.622 4.622 0 0 0-.97.099 3.844 3.844 0 0 0-.679.211 3.71 3.71 0 0 0-1.266.866 3.772 3.772 0 0 0-.775 1.227 4.355 4.355 0 0 0-.036.095 4.756 4.756 0 0 0-.283 1.658Z" fill="#fff" fill-rule="evenodd" data-name="Path 3762"/><path d="M312.117 64.333h-3.68v-2.515h10.205v2.515h-3.681v10.389h-2.844V64.333Z" fill="#fff" fill-rule="evenodd" data-name="Path 3763"/></g><path d="M328.387 83.162a2.334 2.334 0 0 0 2.334-2.333 2.334 2.334 0 0 0-2.334-2.335 2.334 2.334 0 0 0-2.334 2.335 2.334 2.334 0 0 0 2.334 2.333Z" fill="#e2aa48" fill-rule="evenodd" data-name="Path 3764"/><path d="M331.327 76.596a3.364 3.364 0 1 1 0 .1" fill="#e2aa48" fill-rule="evenodd" data-name="Ellipse 97"/><path d="M327.63 76.615a1.273 1.273 0 0 0 1.272-1.273 1.273 1.273 0 0 0-1.273-1.273c-.703 0-1.273.57-1.273 1.273a1.273 1.273 0 0 0 1.273 1.273Z" fill="#e2aa48" fill-rule="evenodd" data-name="Path 3765"/><path d="M385.485 83.031a3.217 3.217 0 0 0-.075-.187 33.117 33.117 0 0 0-.765-1.546c-1.587-2.983-4.754-7.49-11.966-10.457a13.255 13.255 0 0 0-.103-.048c-.806-.377-6.204-2.844-11.601-3.856a27.048 27.048 0 0 0-2.208-.324 34.824 34.824 0 0 0-.044-.004c-.708-.05-9.856-.686-7.224.18a5.231 5.231 0 0 0 .015.005 9.91 9.91 0 0 1 .117.024c.435.089 2.054.438 4.504 1.171a79.177 79.177 0 0 1 1.987.624c3.233 1.062 6.811 2.853 9.238 5.221a11.602 11.602 0 0 1 1.613 1.933 9.228 9.228 0 0 0 4.752 3.373c1.648.618 3.402 1.046 4.934 1.611a17.23 17.23 0 0 1 .438.168 149.608 149.608 0 0 1 .68.273c.985.4 1.91.8 2.744 1.299a8.195 8.195 0 0 1 1.875 1.498c.621.644 1.562.34 1.089-.958Z" fill="#e2aa48" fill-rule="evenodd" data-name="Path 3766"/><path d="M1194.936 141.257a1.122 1.122 0 0 0 1.121-1.115 1.149 1.149 0 0 0 0-.007 1.121 1.121 0 0 0-1.114-1.121 1.122 1.122 0 0 0-1.129 1.114 1.149 1.149 0 0 0 0 .007 1.122 1.122 0 0 0 1.115 1.122 1.148 1.148 0 0 0 .007 0Z" fill-rule="evenodd" fill="url(&quot;#h&quot;)" transform="translate(-822.659 -64.642)" data-name="Path 3767"/><path d="M1201.827 148.146a2.577 2.577 0 0 0 2.573-2.472 2.622 2.622 0 0 0 .002-.107 2.576 2.576 0 0 0-2.47-2.572 2.623 2.623 0 0 0-.108-.002 2.576 2.576 0 0 0-2.572 2.47 2.622 2.622 0 0 0-.002.108 2.576 2.576 0 0 0 2.47 2.573 2.623 2.623 0 0 0 .107.002Z" fill-rule="evenodd" fill="url(&quot;#i&quot;)" transform="translate(-824.7 -66.135)" data-name="Path 3768"/><g data-name="Group 1310"><path d="m1170.683 192.821-18.247-.597a37.65 37.65 0 0 1 1.39.446c8.25 2.83 8.27 6.327 8.27 6.327a36.346 36.346 0 0 1 2.525-2.247c2.879-2.33 5.218-3.475 6.062-3.929Z" fill-rule="evenodd" fill="url(&quot;#j&quot;)" transform="translate(-807.127 -84.615)" data-name="Path 3769"/><path d="m1120.875 191.238-14.482-.496a.65.65 0 0 0-.147.033c-.399.143-.399.634-.399.634-.018.21-.035.504-.05.85a63.024 63.024 0 0 0-.014.331 8.815 8.815 0 0 1 1.41.132c4.126.738 4.712 4.313 4.753 4.608a.947.947 0 0 1 .003.02c3.155-3.329 7.996-2.746 8.504-2.674a2.4 2.4 0 0 1 .043.006c-.11-1.317.083-2.595.308-3.257a2.46 2.46 0 0 1 .07-.187Z" fill-rule="evenodd" fill="url(&quot;#k&quot;)" transform="translate(-789.615 -84.059)" data-name="Path 3770"/><path d="m1214.485 194.41-10.309-.354a11.051 11.051 0 0 1 1.085.989c2.337 2.43 3.044 5.312 3.07 5.424a.668.668 0 0 1 .001.004c.7.175 1.897.406 2.2.802a.41.41 0 0 1 .032.047 14.575 14.575 0 0 1 .428-.44c1.58-1.568 4.542-3.992 5.054-4.409a41.372 41.372 0 0 1 .076-.062v-1.03a.86.86 0 0 0-.076-.314c-.325-.702-1.556-.656-1.56-.656Z" fill-rule="evenodd" fill="url(&quot;#l&quot;)" transform="translate(-826.549 -85.303)" data-name="Path 3771"/></g><g data-name="Group 1311"><path d="M388.24 101.986a1.23 1.23 0 0 0-1.091-1.183c-.591-.059-3.395-.233-4.157-.13a1.268 1.268 0 0 0-.057.009c-.62.113-6.609 4.948-9.979 2.058a4.354 4.354 0 0 1-.71-.785 3.001 3.001 0 0 0-.255-.202c-.789-.567-2.503-1.402-4.17-1.617a28.469 28.469 0 0 0-1.91-.177c-1.096-.067-2.043-.07-2.68-.08a132.927 132.927 0 0 1-.005 0 .517.517 0 0 0-.008 0c-.992 0-3.695 2.814-8.54 2.814-2.524 0-5.31-.339-7.468-2.496a3.588 3.588 0 0 0-1.608-1.054c-1.458-.512-3.21-.384-3.81.008a.715.715 0 0 0-.099.076 5.55 5.55 0 0 0-.429.45c-2.134 2.507-.237 5.238 1.25 5.96a2.129 2.129 0 0 0 .294.118 2256.298 2256.298 0 0 0 4.216.16c6.15.226 12.97.46 18.455.67a15.919 15.919 0 0 1 1.782-.668c3.476-1.064 6.125-.423 8.002.63a9.589 9.589 0 0 1 .713.444 1129.512 1129.512 0 0 0 .178.007c5.25.2 10.5.366 10.923.382a4.919 4.919 0 0 1 .011 0 .437.437 0 0 0 .02 0c.116-.006.737-.066.868-.696a1.153 1.153 0 0 0 .02-.152c.055-.761.26-3.57.246-4.464a3.728 3.728 0 0 0-.002-.082Z" fill="#db1d19" fill-rule="evenodd" data-name="Path 3772"/><path d="M337.256 98.666a4.225 4.225 0 0 0 .005 0 8.774 8.774 0 0 0-2.65 1.583c-1.422 1.233-2.366 2.832-3.004 4.431a16.28 16.28 0 0 0-.21.556 2330.788 2330.788 0 0 0-1.4-.054c-4.854-.188-8.734-.323-9.787-.365a10.873 10.873 0 0 1-.28-.013c-.606-.06-.727-.727-.727-.727-.121-1.334.242-5.76.242-5.76.118-.822.804-.79.847-.788a.126.126 0 0 1 .002 0 16.54 16.54 0 0 1 .56-.023c3.954-.101 11.778.863 13.861 1.076a11.833 11.833 0 0 0 .431.039 21.43 21.43 0 0 0 .147.008c.941.049 1.883.038 1.963.037Z" fill="#db1d19" fill-rule="evenodd" data-name="Path 3773"/></g><path d="m333.352 98.62-3.904-.545a119.126 119.126 0 0 0-.101.011c-1.153.126-11.695 1.285-8.2 1.285 4.888 0 6.865 2.569 8.658 3.523 2.143 1.142 4.117-3.093 3.555-4.256a.675.675 0 0 0-.008-.017Z" fill="#af130e" fill-rule="evenodd" data-name="Path 3774"/><path d="M345.452 100.924a6.304 6.304 0 0 0-.278-.302c-1.444-1.47-2.996-1.577-2.996-1.577a11.841 11.841 0 0 1 .343-.078c2.252-.48 3.382.045 5.288 1.836a6.555 6.555 0 0 0 2.23 1.304c1.738.64 3.476.697 3.476.697-4.706 1.512-7.599-1.375-8.012-1.823a1.977 1.977 0 0 1-.051-.057Z" fill="#af130e" fill-rule="evenodd" data-name="Path 3775"/><path d="M365.405 99.985a.026.026 0 0 0-.01.001c-.058.027 1.506.478 2.65 1.583a4.47 4.47 0 0 1 .451.507c1.018 1.339 3.148 2.548 5.449 1.902a5.176 5.176 0 0 0 .916-.356 1.53 1.53 0 0 1-.057-.01c-.298-.057-1.687-.38-2.55-1.566a2.899 2.899 0 0 0-.846-.732c-1.442-.879-4.003-1.366-6.003-1.33Z" fill="#af130e" fill-rule="evenodd" data-name="Path 3776"/><path d="M1104.446 179.49a3.572 3.572 0 0 0-.084.07.055.055 0 0 1-.038-.024c-.316-.436 3.374-6.757 9.21-5.996a8.013 8.013 0 0 1 1.012.2 34.817 34.817 0 0 0 .697.177c7.322 1.774 9.12-.45 14.853-.45a74.756 74.756 0 0 1 4.92.193c5.08.338 10.16.946 13.357.307 4.243-.849 11.975 1.26 14.995.955 1.596-.162 10.763-1.076 16.334-.143a13.78 13.78 0 0 1 1.913.446 8.726 8.726 0 0 1 .194.065c.362.125.483.199.52.226a.097.097 0 0 1 .013.012 5.646 5.646 0 0 1-.298.269c-1.82 1.524-4.463 1.808-6.127 1.004-.73-.353-1.955-.622-3.31-.622a5.7 5.7 0 0 0-1.051.099c-1.936.362-3.559 1.645-5.237 2.607a7.035 7.035 0 0 1-3.496 1.129 6.22 6.22 0 0 1-1.485-.177c-2.582-.63-4.199-2.773-6.653-3.609a6.242 6.242 0 0 0-2.038-.337c-6.138 0-6.32 3.335-11.89 3.335-2.068 0-4.187-.907-6.417-1.757a17.508 17.508 0 0 0-6.2-1.456 5.403 5.403 0 0 0-1.449.206c-2.598.722-4.67 3.09-5.83 3.09a2.615 2.615 0 0 1-1.23-.319c-1.183-.6-2.365-1.864-6.024-2.136a20.03 20.03 0 0 0-1.486-.053 11.092 11.092 0 0 0-.33.005c-3.917.117-6.823 2.272-7.345 2.685Z" fill-rule="evenodd" fill="url(&quot;#m&quot;)" transform="translate(-789.06 -77.574)" data-name="Path 3777"/><path d="M330.85 88.755a1.965 1.965 0 0 0 .049.078c.287.45 1.876 2.69 5.226 3.058a1.609 1.609 0 0 1-.025.005c-.338.06-4.011.636-6.145-1.8a5.015 5.015 0 0 1-.059-.068.93.93 0 0 1-.008-.01c-.087-.098-.886-1.028-.628-1.673.272-.682 1.045-.273 1.59.41Z" fill="#b2dd14" fill-rule="evenodd" data-name="Path 3778"/><path d="M355.796 92.73a5.604 5.604 0 0 0 .061.026c-7.411-1.683-7.639-3.046-7.547-3.865.08-.733 1.073-.955 2.357.278a6.583 6.583 0 0 1 .462.495 5.582 5.582 0 0 0 .26.286c1.446 1.487 3.98 2.6 4.407 2.78Z" fill="#b2dd14" fill-rule="evenodd" data-name="Path 3779"/><path d="M382.409 93.226a22.792 22.792 0 0 0-.062-.02c-.606-.193-5.505-1.74-7.187-1.74a2.429 2.429 0 0 0-.086.001 4.529 4.529 0 0 0-.386.03c-1.273.155-1.105.812.502.936a6.224 6.224 0 0 0 .066.004 46.13 46.13 0 0 0 .027.002c1.698.112 5.529.277 6.856.683a1.782 1.782 0 0 1 .27.104Z" fill="#b2dd14" fill-rule="evenodd" data-name="Path 3780"/><path d="M380.469 98.802a14.859 14.859 0 0 0-.035.02c-.237.129-1.608.88-2.452 1.453a10.187 10.187 0 0 0-.018.013 39.2 39.2 0 0 1-.322.218c-1.063.712-2.705 1.716-3.417 1.388-.788-.363.121-1.03 1.334-1.394 1.162-.349 4.383-1.477 4.863-1.677a.819.819 0 0 0 .047-.02Z" fill="#b2dd14" fill-rule="evenodd" data-name="Path 3781"/><path d="M360.525 98.136a10.512 10.512 0 0 0-.044.015c-.302.105-2.065.727-3.119 1.306a5.797 5.797 0 0 0-.232.133 5.142 5.142 0 0 1-.244.14c-1.15.618-3.357 1.356-4.142 1.272a.735.735 0 0 1-.1-.017.79.79 0 0 1-.19-.072c-.445-.245-.19-.836.91-1.091a4.047 4.047 0 0 1 .25-.05 13.301 13.301 0 0 0 .586-.111c1.275-.272 2.55-.717 3.233-.98.788-.302 2.421-.666 3.09-.545a1.081 1.081 0 0 1 .002 0Z" fill="#b2dd14" fill-rule="evenodd" data-name="Path 3782"/><path d="M333.744 100.208a5.621 5.621 0 0 0-.438.353c-1.205 1.084-1.392.312-1.394.065a.501.501 0 0 1 0-.005c0-.226 1.69-1.139 4.527-1.999a35.272 35.272 0 0 1 .625-.183s-2.022.818-3.32 1.77Z" fill="#b2dd14" fill-rule="evenodd" data-name="Path 3783"/></g><defs><linearGradient x1=".5" y1=".833" x2=".5" y2="-.195" id="m"><stop stop-color="#8ac340" offset=".007"/><stop stop-color="#68931c" offset=".989"/></linearGradient><linearGradient x1="0" y1=".5" x2="1" y2=".5" id="l"><stop stop-color="#dc3728" offset=".007"/><stop stop-color="#ec9f23" offset="1"/></linearGradient><linearGradient x1="0" y1=".5" x2="1" y2=".5" id="k"><stop stop-color="#dc3728" offset=".007"/><stop stop-color="#ec9f23" offset="1"/></linearGradient><linearGradient x1="0" y1=".5" x2="1" y2=".5" id="j"><stop stop-color="#dc3728" offset=".007"/><stop stop-color="#ec9f23" offset="1"/></linearGradient><linearGradient x1="-2.832" y1="-11.108" x2="1.423" y2="-11.108" id="i"><stop stop-color="#dc3728" offset=".007"/><stop stop-color="#ec9f23" offset="1"/></linearGradient><linearGradient x1="-1.87" y1="-3.665" x2="3.229" y2="-3.665" id="h"><stop stop-color="#dc3728" offset=".007"/><stop stop-color="#ec9f23" offset="1"/></linearGradient><linearGradient x1="0" y1=".5" x2="1" y2=".5" id="g"><stop stop-color="#dc3728" offset=".007"/><stop stop-color="#ec9f23" offset="1"/></linearGradient><linearGradient x1="0" y1=".5" x2="1" y2=".5" id="f"><stop stop-color="#dc3728" offset=".007"/><stop stop-color="#ec9f23" offset="1"/></linearGradient><linearGradient x1=".5" y1=".164" x2=".5" y2="1.007" id="e"><stop stop-color="#8ac340" offset=".007"/><stop stop-color="#68931c" offset=".989"/></linearGradient><linearGradient x1=".381" y1="1.027" x2=".584" y2=".252" id="d"><stop stop-color="#dc3728" offset=".007"/><stop stop-color="#ec9f23" offset="1"/></linearGradient><linearGradient x1=".395" y1=".513" x2=".527" y2=".32" id="c"><stop stop-color="#dc3728" offset="0"/><stop stop-color="#dc3728" offset="0"/><stop stop-color="#fa0" offset="1"/></linearGradient><linearGradient x1=".432" y1=".97" x2=".739" y2="-.072" id="b"><stop stop-color="#be3728" offset=".007"/><stop stop-color="#ec9f23" offset="1"/></linearGradient><linearGradient x1=".214" y1="1.402" x2=".895" y2="-.175" id="a"><stop stop-color="#dc3728" offset=".007"/><stop stop-color="#ec9f23" offset="1"/></linearGradient></defs></svg>