<svg xmlns="http://www.w3.org/2000/svg" width="66.237" height="73.802" viewBox="384.601 4752.471 66.237 73.802"><path d="m441.51 4803.228 8.422-2.455c.63-.184 1.01-.82.881-1.455a1.275 1.275 0 0 0-.017-.074l-.05-.217a5.943 5.943 0 0 0-.104-.426 26.867 26.867 0 0 0-12.958-16.143 1.26 1.26 0 0 0-.437-.144 1.257 1.257 0 0 0-1.25.603 1.282 1.282 0 0 0-.021.04l-10.366 18.897-.34.62-9.22-4.078v-1.946a18.82 18.82 0 0 0 8.695-11.063c.638.018 1.271-.12 1.885-.412a4.907 4.907 0 0 0 .481-.264 4.629 4.629 0 0 0 1.86-2.191 3.97 3.97 0 0 0 .253-.98 4.475 4.475 0 0 0 .005-.04c.019-.169.028-.337.028-.504a4.412 4.412 0 0 0-1.103-2.925 4.4 4.4 0 0 0-2.041-1.296V4763.928c0-4.218-2.983-7.764-7.094-8.431a31.814 31.814 0 0 1-5.628-1.472 40.282 40.282 0 0 1-2.847-1.146 4.745 4.745 0 0 0-1.885-.408 4.729 4.729 0 0 0-2.184.504 29.426 29.426 0 0 1-3.064 1.348 25.34 25.34 0 0 1-3.949 1.125 23.161 23.161 0 0 1-.261.05c-4.087.754-7.053 4.297-7.053 8.421V4776.772a4.369 4.369 0 0 0-1.91 1.157 4.369 4.369 0 0 0-1.235 3.057 4.569 4.569 0 0 0 .003.16 4.305 4.305 0 0 0 1.257 2.82 4.981 4.981 0 0 0 .785.657 4.848 4.848 0 0 0 1.08.558c.389.139.783.212 1.185.212a3.322 3.322 0 0 0 .14-.003 18.77 18.77 0 0 0 8.764 11.29.052.052 0 0 1-.002.014.06.06 0 0 0-.004.015.03.03 0 0 0 0 .002v1.685l-9.313 4.119-.51.225a13.06 13.06 0 0 0-7.787 11.928v10.347c0 .695.563 1.258 1.258 1.258H448.757a1.258 1.258 0 0 0 1.257-1.258v-15.095a1.258 1.258 0 0 0-1.258-1.258h-16.569a13.008 13.008 0 0 0-1.517-2.274l10.839-3.16Zm-25.46 6.692v13.837h-21.386v-19.272l7.548-3.338v3.112a6.926 6.926 0 0 0 6.919 6.919 6.926 6.926 0 0 0 6.919-6.92v-3.111l4.972 2.199 2.575 1.139v1.038l-.45.822c-.105.19-.156.397-.156.604a1.257 1.257 0 0 0 .278.788c.09.113.21.186.328.26v.665h-6.29c-.694 0-1.257.563-1.257 1.258Zm-4.314-14.257-.56.181a8.009 8.009 0 0 1-1.548.338 7.76 7.76 0 0 1-.892.052 7.123 7.123 0 0 1-2.176-.332 16.26 16.26 0 0 1-10.924-12.2 1.256 1.256 0 0 0-.605-.837 1.262 1.262 0 0 0-.627-.168c-.02 0-.04 0-.059.002a1.268 1.268 0 0 0-.342.064 2.395 2.395 0 0 1-.262.073c-.392.085-.784.04-1.285-.298a2.373 2.373 0 0 1-.623-.61 1.78 1.78 0 0 1-.284-.638 1.363 1.363 0 0 1-.029-.232 1.965 1.965 0 0 1 0-.07 1.872 1.872 0 0 1 .528-1.311c.36-.373.842-.577 1.358-.577.828 0 1.144-.56 1.268-1.127a31.298 31.298 0 0 1 6.58-2.592 28.763 28.763 0 0 1 1.025-.252c3.886 3.153 9.102 5.665 14.496 5.665 2.184 0 4.396-.416 6.558-1.363a16.708 16.708 0 0 0 .954-.454c.143.064.303.113.503.121a1.495 1.495 0 0 0 .065.002c.54 0 1.056.232 1.414.637a1.868 1.868 0 0 1 .473 1.249 2.013 2.013 0 0 1-.016.246 1.66 1.66 0 0 1-.328.783 2.253 2.253 0 0 1-.616.56 2.452 2.452 0 0 1-.27.147c-.42.193-.808.2-1.28.033a1.253 1.253 0 0 0-.39-.072h-.03a1.253 1.253 0 0 0-.61.16 1.258 1.258 0 0 0-.617.83 16.287 16.287 0 0 1-10.849 11.99Zm11.862-31.736v3.728c-9.26-4.25-18.67-4.377-28.036-.385a41.45 41.45 0 0 0-.897.396v-3.747c0-2.912 2.1-5.413 4.993-5.948a27.122 27.122 0 0 0 3.4-.862 31.068 31.068 0 0 0 4.274-1.749 33.633 33.633 0 0 0 .284-.142 2.183 2.183 0 0 1 .991-.235h.059a2.248 2.248 0 0 1 .854.193 40.278 40.278 0 0 0 5.05 1.879c1.325.39 2.636.691 3.947.909a31.896 31.896 0 0 0 .099.016c2.886.468 4.982 2.97 4.982 5.947Zm-28.934 11.22v-4.705a36.302 36.302 0 0 1 7.747-2.81c6.158-1.434 12.245-.918 18.387 1.549a38.933 38.933 0 0 1 2.8 1.256v4.826a42.37 42.37 0 0 0-8.111-2.591 34.235 34.235 0 0 0-6.952-.73 31.725 31.725 0 0 0-13.87 3.206Zm53.379 23.555-3.835 1.118a4.442 4.442 0 0 0 .007-.25c0-.057-.001-.115-.004-.173a3.545 3.545 0 0 0-.136-.848 3.746 3.746 0 0 0-1.808-2.253 3.753 3.753 0 0 0-2.871-.314 3.782 3.782 0 0 0-2.718 3.625c0 .223.02.45.062.675a3.798 3.798 0 0 0 .09.38 3.763 3.763 0 0 0 .571 1.143l-7.464 2.176a5.042 5.042 0 0 0 3.622-4.832c0-.3-.026-.602-.082-.904a5.067 5.067 0 0 0-.12-.502 4.985 4.985 0 0 0-1.393-2.243l1.253-2.284a4.965 4.965 0 0 0 2.855.905 5.01 5.01 0 0 0 .706-.05 5.044 5.044 0 0 0 .706-.153 4.997 4.997 0 0 0 3.003-2.41 4.964 4.964 0 0 0 .616-2.394c0-.441-.059-.885-.176-1.322a24.336 24.336 0 0 1 7.116 10.91Zm-.545 14.991h-28.933v-2.515h28.933v2.515Zm0 10.064h-28.933v-2.516h28.933v2.516Zm0-5.032h-28.933v-2.516h28.933v2.516Zm-55.35-13.014v18.046h-5.031v-9.09a10.527 10.527 0 0 1 5.031-8.956Zm19.804-7.473.56-.18a8.542 8.542 0 0 0 .665-.258c.119-.05.237-.1.357-.146v6.605a4.408 4.408 0 0 1-4.403 4.403 4.408 4.408 0 0 1-4.403-4.403v-6.38a16.377 16.377 0 0 1 .361.148l.005.002a8.848 8.848 0 0 0 .695.267 9.608 9.608 0 0 0 2.95.46 10.094 10.094 0 0 0 1.443-.105 10.741 10.741 0 0 0 1.77-.413Zm6.981-20.126a13.512 13.512 0 0 0 2.99-.818 41.315 41.315 0 0 0-4.923-1.688c-2.884-.783-5.697-1.173-8.45-1.173a28.651 28.651 0 0 0-2.779.134 26.884 26.884 0 0 0 .537.345c2.898 1.81 7.591 3.973 12.625 3.2Zm15.517 12.858 2.338-4.264a2.466 2.466 0 0 1 1.703 1.678 2.533 2.533 0 0 1 .06.254 2.52 2.52 0 0 1-1.771 2.866 2.468 2.468 0 0 1-.287.065 2.426 2.426 0 0 1-.395.032 2.499 2.499 0 0 1-1.648-.631Zm-5.863 10.686 2.086-3.801a2.512 2.512 0 0 1 .27.592 2.533 2.533 0 0 1 .06.254c.027.15.04.3.04.449a2.52 2.52 0 0 1-1.811 2.416 2.517 2.517 0 0 1-.643.09 3.058 3.058 0 0 1-.002 0Zm.635 7.006h-3.11v-.945l1.858-.542c.466.457.88.955 1.252 1.487Zm11.584-7.85-.002.001a1.25 1.25 0 0 1-.957-.105 1.25 1.25 0 0 1-.602-.75 1.266 1.266 0 0 1-.03-.129 1.25 1.25 0 0 1-.02-.223 1.26 1.26 0 0 1 .906-1.209 1.302 1.302 0 0 1 .235-.045 1.23 1.23 0 0 1 .118-.006c.21 0 .415.053.604.156.294.162.508.428.602.75a1.27 1.27 0 0 1 .048.274 1.25 1.25 0 0 1-.152.684 1.25 1.25 0 0 1-.75.602Zm-10.872 3.17-3.121.91.473-.863c.404.104.818.156 1.235.156a5 5 0 0 0 .298-.009 5.05 5.05 0 0 0 1.115-.194Z" fill="#a80e0e" fill-rule="evenodd" data-name="Path 4276"/></svg>