<svg xmlns="http://www.w3.org/2000/svg" width="72.913" height="72.913"><path d="M69.385 39.985V24.696a3.532 3.532 0 0 0-3.528-3.528h-2.352a3.465 3.465 0 0 0-1.898.569 3.678 3.678 0 0 0-.454.349 3.508 3.508 0 0 0-2.173-.913 3.477 3.477 0 0 0-.18-.005H56.45a3.465 3.465 0 0 0-1.898.569 3.678 3.678 0 0 0-.454.349 3.508 3.508 0 0 0-2.173-.913 3.477 3.477 0 0 0-.18-.005h-2.351a3.532 3.532 0 0 0-3.528 3.528v15.091c-2.713-1.88-6.673-3.481-12.47-4.158l1.851-12.967a3.356 3.356 0 0 0 .035-.474 3.375 3.375 0 0 0-3.372-3.372h-10.74V8.232a1.178 1.178 0 0 1 1.175-1.176h9.408a3.532 3.532 0 0 0 3.529-3.528A3.532 3.532 0 0 0 31.752 0H21.168a7.063 7.063 0 0 0-7.056 7.056v11.76H3.372A3.375 3.375 0 0 0 0 22.188a3.444 3.444 0 0 0 .034.477l2.834 19.837C.323 45.534.035 48.527.004 49.248a3.455 3.455 0 0 0-.004.145 4.696 4.696 0 0 0 3.16 4.423 4.68 4.68 0 0 0-.808 2.633 4.64 4.64 0 0 0 .79 2.591 4.828 4.828 0 0 0 .512.64A7.06 7.06 0 0 0 0 65.856a7.063 7.063 0 0 0 7.056 7.056h65.857v-29.4a3.532 3.532 0 0 0-3.528-3.528Zm1.176 7.056H68.21v2.352h2.352V70.56H49.934a7.027 7.027 0 0 0 1.4-2.352h16.875V51.745H51.091a4.679 4.679 0 0 0 .65-2.192 4.45 4.45 0 0 0 .004-.16h14.112V47.04h-14.51c-.383-1.308-1.138-3.005-2.61-4.704h20.648c.648 0 1.176.526 1.176 1.176v3.528ZM2.532 23.52l-.17-1.185a1.047 1.047 0 0 1-.01-.148 1.02 1.02 0 0 1 1.02-1.02h28.536c.563 0 1.02.458 1.02 1.02a1.144 1.144 0 0 1-.007.127 1.163 1.163 0 0 1-.002.018l-.17 1.187H29.4v2.352h3.012l-.671 4.704H3.54l-.672-4.704h24.18V23.52H2.532Zm42.157 47.04H7.057a4.709 4.709 0 0 1-4.705-4.704 4.709 4.709 0 0 1 4.704-4.704h9.162l19.388 8.483 7.272-8.483h1.81a4.709 4.709 0 0 1 4.705 4.704 4.709 4.709 0 0 1-4.704 4.704ZM24.696 37.633h2.352a54.91 54.91 0 0 1 4.74.194c17.257 1.496 17.6 11.13 17.605 11.566a2.354 2.354 0 0 1-2.352 2.352H4.704a2.354 2.354 0 0 1-2.352-2.352 3.827 3.827 0 0 1 .036-.415c.267-2.024 2.47-10.78 20.533-11.32a59.549 59.549 0 0 1 1.775-.025ZM7.056 54.097H44.69a2.354 2.354 0 0 1 2.352 2.352 2.354 2.354 0 0 1-2.352 2.352H7.056a2.354 2.354 0 0 1-2.352-2.352 2.354 2.354 0 0 1 2.352-2.352Zm41.683 0h17.118v11.76H51.745a7.027 7.027 0 0 0-.412-2.352h7.468v-2.352h-8.867a7.1 7.1 0 0 0-1.842-1.474 4.688 4.688 0 0 0 1.292-2.939 4.687 4.687 0 0 0 .009-.291 4.588 4.588 0 0 0-.476-2.02 5.132 5.132 0 0 0-.178-.332ZM31.406 32.928l-.356 2.489a57.875 57.875 0 0 0-4.002-.136h-2.352c-7.242 0-12.356 1.191-15.97 2.882a18.6 18.6 0 0 0-3.771 2.314l-1.079-7.549h27.53Zm25.043-9.408H58.8c.648 0 1.176.528 1.176 1.176v15.289h-4.704V24.696c0-.648.528-1.176 1.176-1.176Zm-7.056 0h2.352c.648 0 1.176.528 1.176 1.176v15.289h-4.704V24.696c0-.648.528-1.176 1.176-1.176Zm14.112 0h2.352c.648 0 1.176.528 1.176 1.176v15.289h-4.704V24.696c0-.648.528-1.176 1.176-1.176ZM21.168 2.352h1.176v2.352a3.532 3.532 0 0 0-3.528 3.528v10.584h-2.352V7.056a4.709 4.709 0 0 1 4.704-4.704Zm18.612 58.8-4.825 5.63-12.87-5.63H39.78ZM29.4 2.353h2.352c.648 0 1.176.528 1.176 1.176 0 .648-.528 1.176-1.176 1.176H29.4V2.352Zm-4.704 0h2.352v2.352h-2.352V2.352Z" fill="#a80e0e" fill-rule="evenodd" data-name="Path 4285"/></svg>