<svg xmlns="http://www.w3.org/2000/svg" width="64.64" height="63.958" viewBox="1133 4756 64.64 63.958"><path d="M1193.37 4789.989v-3.16c.4-.147.784-.341 1.145-.584a4.985 4.985 0 0 0 2.263-4.185 4.932 4.932 0 0 0-.936-2.905 4.075 4.075 0 0 0 .32-1.585c0-.148-.008-.296-.024-.445a4.102 4.102 0 0 0-.045-.307 21.727 21.727 0 0 0-5.435-10.586 27.87 27.87 0 0 0-5.02-4.318 35.102 35.102 0 0 0-14.108-5.424 39.486 39.486 0 0 0-6.21-.49 37.82 37.82 0 0 0-16.112 3.52 31.89 31.89 0 0 0-4.207 2.394 26.716 26.716 0 0 0-6.902 6.66 20.984 20.984 0 0 0-3.551 8.244 4.107 4.107 0 0 0-.046.302 4.07 4.07 0 0 0 .573 2.573 4.91 4.91 0 0 0-.598 2.367 4.985 4.985 0 0 0 2.263 4.186 5.496 5.496 0 0 0 .53.312v3.43a6.397 6.397 0 0 0-4.27 6.025v.257a6.37 6.37 0 0 0 2.036 4.67 4.952 4.952 0 0 0-.559 2.287 4.932 4.932 0 0 0 1.29 3.347v4.556a8.837 8.837 0 0 0 8.827 8.827h41.452a8.837 8.837 0 0 0 8.828-8.827v-3.983c1.214-.969 1.904-2.374 1.904-3.92 0-.97-.274-1.889-.784-2.683a6.36 6.36 0 0 0 1.634-3.873 6.449 6.449 0 0 0 .012-.401v-.257a6.397 6.397 0 0 0-4.27-6.024Zm-1.302-10.853h-53.496a1.59 1.59 0 0 1-1.569-1.576 1.517 1.517 0 0 1 .026-.279 19.049 19.049 0 0 1 4.43-8.908 25.093 25.093 0 0 1 4.957-4.368 32.376 32.376 0 0 1 12.485-4.921 36.942 36.942 0 0 1 6.419-.56 35.427 35.427 0 0 1 14.449 3.008 29.638 29.638 0 0 1 4.455 2.473c5.097 3.448 8.43 8.163 9.387 13.276a1.515 1.515 0 0 1 .026.279 1.592 1.592 0 0 1-1.57 1.576Zm-52.682 23.52h23.254l2.341 2.342a1.258 1.258 0 0 0 .893.364 1.259 1.259 0 0 0 .889-.36l2.366-2.346h22.124a6.423 6.423 0 0 0 2.096-.353 19.094 19.094 0 0 0 .088-.03 2.638 2.638 0 0 0 .33-.137c.041-.021.1-.068.15-.068a.076.076 0 0 1 .006 0 .085.085 0 0 1 .066.044c.02.03.031.07.045.102a.323.323 0 0 0 .002.005c.137.301.21.631.216.962.02 1.191-.837 2.188-1.957 2.512a2.932 2.932 0 0 1-.808.116 3.013 3.013 0 0 1-1.147-.223 6.263 6.263 0 0 0-2.127-.456 7.585 7.585 0 0 0-.33-.007c-2.21 0-3.416.82-4.378 1.498a157.67 157.67 0 0 0-.06.043 20.523 20.523 0 0 1-.438.304c-.676.451-1.345.774-2.543.774-1.445 0-2.12-.47-2.966-1.068a420.598 420.598 0 0 1-.015-.01 24.918 24.918 0 0 0-.435-.303c-.906-.611-2.07-1.238-4.002-1.238-2.209 0-3.415.82-4.377 1.498a162.961 162.961 0 0 0-.06.043 20.498 20.498 0 0 1-.438.303c-.676.452-1.344.775-2.543.775-1.445 0-2.12-.47-2.966-1.068a977.148 977.148 0 0 1-.015-.01 24.918 24.918 0 0 0-.436-.303c-.905-.611-2.07-1.238-4.001-1.238-2.209 0-3.415.82-4.377 1.498a165.26 165.26 0 0 0-.06.043 20.498 20.498 0 0 1-.438.303c-.583.39-1.16.684-2.077.757a5.823 5.823 0 0 1-.466.018c-1.446 0-2.12-.47-2.966-1.068a2130.48 2130.48 0 0 1-.015-.01 25.014 25.014 0 0 0-.436-.303c-.906-.611-2.07-1.238-4.002-1.238a6.711 6.711 0 0 0-1.581.18 6.068 6.068 0 0 0-.878.283 2.976 2.976 0 0 1-2.563-.146c-.688-.387-1.2-1.05-1.32-1.84a2.468 2.468 0 0 1-.03-.376v-.012a2.511 2.511 0 0 1 .023-.318c.008-.066.12-.62.183-.62a.01.01 0 0 1 .004 0 6.407 6.407 0 0 0 2.065.381 6.308 6.308 0 0 0 .11.001Zm46.66 14.776h-41.452a6.31 6.31 0 0 1-6.303-6.302v-2.995a5.393 5.393 0 0 0 1.472.204c.585 0 1.175-.094 1.75-.285l.065-.022c.097-.034.194-.069.29-.108a3.686 3.686 0 0 1 1.048-.254 4.707 4.707 0 0 1 .457-.021c1.445 0 2.12.47 2.966 1.067a421.459 421.459 0 0 1 .015.01c.907.64 2.02 1.427 3.996 1.53a8.486 8.486 0 0 0 .442.011 7.77 7.77 0 0 0 1.21-.09c1.471-.232 2.397-.865 3.167-1.408a159.8 159.8 0 0 0 .06-.042 20.372 20.372 0 0 1 .437-.303c.676-.452 1.345-.775 2.543-.775 1.446 0 2.12.47 2.967 1.067a2374.93 2374.93 0 0 1 .015.01 24.913 24.913 0 0 0 .435.304c.834.563 1.889 1.139 3.56 1.226a8.486 8.486 0 0 0 .442.011c2.21 0 3.415-.82 4.377-1.498a159.8 159.8 0 0 0 .06-.042 20.372 20.372 0 0 1 .437-.303c.583-.39 1.16-.684 2.077-.758a5.825 5.825 0 0 1 .467-.017 5.383 5.383 0 0 1 .742.047c.97.135 1.546.541 2.239 1.03a24.855 24.855 0 0 0 .435.304c.834.563 1.889 1.139 3.56 1.226a8.483 8.483 0 0 0 .442.011 7.77 7.77 0 0 0 1.211-.09c1.47-.232 2.396-.865 3.166-1.408a159.8 159.8 0 0 0 .06-.042c.853-.603 1.527-1.078 2.981-1.078a4.999 4.999 0 0 1 .076 0 4.117 4.117 0 0 1 1.041.143 6.456 6.456 0 0 1 .51.172l.006.002a6.691 6.691 0 0 0 .502.171c.75.212 1.561.257 2.33.131v2.862a6.31 6.31 0 0 1-6.3 6.302Zm-47.474-35.771h53.496c.697 0 1.397-.18 2.005-.523.119.292.18.607.18.922 0 .839-.418 1.6-1.146 2.089a2.93 2.93 0 0 1-1.633.49h-.068a3.017 3.017 0 0 1-.842-.14 12.746 12.746 0 0 1-.408-.139l-.077-.027a6.166 6.166 0 0 0-.766-.231c-.47-.1-.95-.145-1.43-.145a7.772 7.772 0 0 0-1.21.09c-1.472.232-2.398.865-3.167 1.408a160.97 160.97 0 0 0-.06.042c-.854.603-1.527 1.079-2.981 1.079-1.446 0-2.12-.47-2.966-1.068a412.502 412.502 0 0 1-.015-.01c-.907-.641-2.02-1.427-3.995-1.53a8.49 8.49 0 0 0-.443-.011c-2.209 0-3.414.82-4.376 1.498a157.67 157.67 0 0 0-.06.043 20.573 20.573 0 0 1-.438.303c-.676.451-1.344.775-2.543.775a5.379 5.379 0 0 1-.742-.048c-.964-.134-1.538-.535-2.225-1.02a420.486 420.486 0 0 1-.014-.011c-.972-.686-2.182-1.54-4.437-1.54a7.772 7.772 0 0 0-1.211.09c-1.471.232-2.397.865-3.167 1.408a160.957 160.957 0 0 0-.06.042 20.468 20.468 0 0 1-.437.303c-.676.452-1.345.776-2.544.776a5.382 5.382 0 0 1-.741-.048c-.965-.134-1.538-.535-2.225-1.02a417.322 417.322 0 0 1-.015-.011 24.863 24.863 0 0 0-.435-.302c-.906-.612-2.07-1.238-4.003-1.238a6.72 6.72 0 0 0-1.581.18 6.09 6.09 0 0 0-.878.282 2.994 2.994 0 0 1-1.09.22l-.041.001a2.933 2.933 0 0 1-1.635-.49c-.728-.49-1.146-1.251-1.146-2.09a2.56 2.56 0 0 1 0-.005 2.432 2.432 0 0 1 .093-.669 4.11 4.11 0 0 0 1.364.273 4.077 4.077 0 0 0 .113.002Zm52.272 5.471v2.495h-51.049v-2.46a5.668 5.668 0 0 0 .126-.002 6.614 6.614 0 0 0 .125-.005 6.133 6.133 0 0 0 1.9-.434 4.026 4.026 0 0 1 1.434-.245c.168 0 .336.008.504.023a4.25 4.25 0 0 1 .672.111c.706.18 1.2.523 1.768.924a331.206 331.206 0 0 1 .03.02c.907.641 2.02 1.427 3.996 1.53a8.486 8.486 0 0 0 .442.012 7.77 7.77 0 0 0 1.211-.091c1.47-.232 2.396-.865 3.166-1.408a159.803 159.803 0 0 0 .06-.042 20.55 20.55 0 0 1 .437-.303c.583-.39 1.16-.684 2.077-.757a5.824 5.824 0 0 1 .467-.018c1.454 0 2.128.476 2.98 1.078a24.857 24.857 0 0 0 .436.303c.906.611 2.07 1.238 4.002 1.238 2.255 0 3.465-.855 4.437-1.541.853-.602 1.528-1.078 2.98-1.078a5.379 5.379 0 0 1 .743.048c.964.134 1.538.535 2.224 1.02a411.16 411.16 0 0 1 .015.01c.907.64 2.02 1.426 3.995 1.53a8.483 8.483 0 0 0 .442.01c2.21 0 3.415-.819 4.377-1.498a157.65 157.65 0 0 0 .06-.042c.757-.534 1.372-.968 2.515-1.06a5.824 5.824 0 0 1 .466-.018 4.088 4.088 0 0 1 1.503.275c.47.184.958.317 1.46.375Zm-51.458 5.02h3.756l6.885 6.885a1.262 1.262 0 0 0 .893.37 1.262 1.262 0 0 0 .892-.37l3.604-3.604 4.699 4.698h-20.729c-.667 0-1.33-.176-1.91-.507a3.863 3.863 0 0 1-1.949-3.22 3.911 3.911 0 0 1-.002-.134v-.257a3.866 3.866 0 0 1 3.861-3.861Zm55.73 3.861v.257a3.843 3.843 0 0 1-.968 2.552 3.901 3.901 0 0 1-.675.605 3.87 3.87 0 0 1-2.22.704h-19.577l8.051-7.98h11.526a3.866 3.866 0 0 1 3.862 3.862Zm-31.06 4.488-7.746-7.745-.604-.604h20.43l-8.438 8.344a.013.013 0 0 1-.003.003.031.031 0 0 0-.002.002l-1.82 1.819-1.818-1.819Zm-11.92-8.35.2.202 1.294 1.294-2.71 2.712-4.207-4.207h5.422Zm15.56 8.348h-.002" fill="#a80e0e" fill-rule="evenodd" data-name="Path 4281"/></svg>