<svg xmlns="http://www.w3.org/2000/svg" width="73.144" height="70.212"><path d="M50.58 13.2V9.57a4.865 4.865 0 0 0 3.686-4.713A4.863 4.863 0 0 0 49.408 0H39.122a4.863 4.863 0 0 0-4.857 4.857 4.865 4.865 0 0 0 3.685 4.714v3.64a28.672 28.672 0 0 0-13.065 6.781 29.18 29.18 0 0 0-1.004.957 28.996 28.996 0 0 0-2.425 2.753 1.417 1.417 0 0 0-.109-.005h-10.18c-.789 0-1.429.64-1.429 1.428a1.429 1.429 0 0 0 1.429 1.429h8.345a28.639 28.639 0 0 0-2.535 5.491H1.429A1.429 1.429 0 0 0 0 33.474c0 .789.64 1.428 1.429 1.428h14.74a29.047 29.047 0 0 0-.708 5.491H9.143a1.429 1.429 0 0 0 0 2.858h6.363c.12 1.849.418 3.688.892 5.49H7.143a1.429 1.429 0 0 0-1.429 1.43c0 .788.64 1.428 1.43 1.428H17.31a28.669 28.669 0 0 0 6.022 9.598 29.245 29.245 0 0 0 .55.564 28.911 28.911 0 0 0 17.553 8.312 28.791 28.791 0 0 0 1.015.082 28.842 28.842 0 0 0 1.816.057c5.575 0 11.079-1.613 15.749-4.654a1.423 1.423 0 0 0 .598-.822 1.425 1.425 0 0 0-.143-1.093 1.452 1.452 0 0 0-.038-.062 1.423 1.423 0 0 0-.82-.599 1.425 1.425 0 0 0-1.095.143 1.452 1.452 0 0 0-.062.038 25.825 25.825 0 0 1-14.116 4.17 26.057 26.057 0 0 1-18.437-7.592 25.855 25.855 0 0 1-7.179-13.686c-1.48-8.122.912-16.818 7.179-23.085 10.137-10.138 26.633-10.138 36.77 0a26.061 26.061 0 0 1 7.591 18.44c0 .158-.001.316-.004.475a25.806 25.806 0 0 1-4.146 13.61 1.423 1.423 0 0 0-.216.577 1.43 1.43 0 0 0 .578 1.36 1.451 1.451 0 0 0 .058.04 1.429 1.429 0 0 0 1.936-.361 1.452 1.452 0 0 0 .04-.06 28.93 28.93 0 0 0 4.635-15.718c0-.949-.047-1.9-.141-2.848a28.913 28.913 0 0 0-8.31-17.536 28.679 28.679 0 0 0-11.47-7.03 28.882 28.882 0 0 0-2.642-.718ZM39.123 2.858h10.286c1.103 0 2 .898 2 2 0 1.103-.897 2-2 2H39.122a2.002 2.002 0 0 1-2-2c0-1.102.898-2 2-2Zm1.685 9.863V9.715h6.917v3a29.102 29.102 0 0 0-3.431-.204h-.006a29.1 29.1 0 0 0-3.48.209Z" fill="#a80e0e" fill-rule="evenodd" data-name="XMLID_389_"/></svg>